. 
  
http://www.torrenting.com/        :     Greatest Movie Tracker on The Net!!!
 
http://www.Torrenting.com          :     Once & For all ;)


               www . Torrenting . Com 

(((((((((((((= Enjoy No RAR releases =))))))))))))))))))))


...................................NFO:....................................

.[img]http://img856.imageshack.us/img856/6128/riomovieposterl.jpg[/img]

[color=blue][size=5][b]Rio.2011.R5.NEW.AUDIO.XVID.AC3-5.1.HQ.Hive-CM8[/b][/size][/color]


[b]Thx Hive


CM8 Doing It Right The First Time :D


Sources:

Video:  Russian DVD-9
Rio.2011.D.DVD.ELEKTRI4KA

Audio: Studio Quality Line Thx m8

Encode:

well the Russian DVD was not the greatest in sharpness, still made a nice video in motion too.
added brightness,sharpness,rgb and denoise.
I synced the new line to the dvd-9, yes lipsync as always.
And i cleaned the russian sourround channels of russian voice and entered the line back into the 5.1 track made of the russian DTS track sourrounds.
Like always my Audio will fit on any straight encode of the dvd-9.
enjoy

Video: 720x304 @bitrate 2200 2pass
Audio: English AC3 5.1 @448
Sample: yes included[/b]


[url]http://www.imdb.com/title/tt1436562/[/url]


General
Complete name                    : Rio.2011.R5.NEW.AUDIO.XVID.AC3-5.1.HQ.Hive-CM8.avi
Format                           : AVI
Format/Info                      : Audio Video Interleave
File size                        : 1.71 GiB
Duration                         : 1h 32mn
Overall bit rate                 : 2 657 Kbps
Writing application              : Nandub v1.0rc2
Writing library                  : Nandub build 1853/release

Video
ID                               : 0
Format                           : MPEG-4 Visual
Format profile                   : Advanced Simple@L5
Format settings, BVOP            : 2
Format settings, QPel            : Yes
Format settings, GMC             : No warppoints
Format settings, Matrix          : Default (H.263)
Muxing mode                      : Packed bitstream
Codec ID                         : XVID
Codec ID/Hint                    : XviD
Duration                         : 1h 32mn
Bit rate                         : 2 199 Kbps
Width                            : 720 pixels
Height                           : 304 pixels
Display aspect ratio             : 2.35:1
Frame rate                       : 25.000 fps
Color space                      : YUV
Chroma subsampling               : 4:2:0
Bit depth                        : 8 bits
Scan type                        : Progressive
Compression mode                 : Lossy
Bits/(Pixel*Frame)               : 0.402
Stream size                      : 1.41 GiB (83%)
Writing library                  : XviD 1.2.1 (UTC 2008-12-04)

Audio
ID                               : 1
Format                           : AC-3
Format/Info                      : Audio Coding 3
Mode extension                   : CM (complete main)
Codec ID                         : 2000
Duration                         : 1h 32mn
Bit rate mode                    : Constant
Bit rate                         : 448 Kbps
Channel(s)                       : 6 channels
Channel positions                : Front: L C R, Side: L R, LFE
Sampling rate                    : 48.0 KHz
Bit depth                        : 16 bits
Compression mode                 : Lossy
Stream size                      : 295 MiB (17%)
Alignment                        : Split accross interleaves
Interleave, duration             : 40 ms (1.00 video frame)
Interleave, preload duration     : 500 ms


Karen Disher	 ... 	Mother Bird (voice)
Jason Fricchione	... 	Truck Driver (voice)
Sofia Scarpa Saldanha	... 	Young Linda (voice)
Leslie Mann	... 	Linda (voice)
Jesse Eisenberg	... 	Blu (voice)
Wanda Sykes	... 	Chloe (The Goose) (voice)
Jamie Foxx	... 	Nico (voice)
Will i Am	... 	Pedro (voice) (as will.i.am)
Anne Hathaway	... 	Jewel (voice)
George Lopez	 ... 	Rafael (voice)


When Blu, a domesticated macaw from small-town Minnesota, meets the fiercely 
independent Jewel, he takes off on an adventure to Rio de Janeiro with this bird of his dreams.  
 

[img]http://img573.imageshack.us/img573/2952/69931460.png[/img]
[img]http://img542.imageshack.us/img542/8929/rrii.png[/img]
[img]http://img819.imageshack.us/img819/1330/rririi.png[/img]
[img]http://img31.imageshack.us/img31/61/rriririi.png[/img]
[img]http://img263.imageshack.us/img263/3471/rririririi.png[/img]
[img]http://img269.imageshack.us/img269/1278/rriririrriii.png[/img]
[img]http://img809.imageshack.us/img809/8444/rriririrrrriii.png[/img]
[img]http://img859.imageshack.us/img859/134/rriririrrrrrriii.png[/img]
[img]http://img695.imageshack.us/img695/1207/rriririrrrrrrrriii.png[/img]





ViSiON,LUSi,SANTi,MAGNET,THC,T0XiCiNK,LKRG,IMAGiNE,WBZ,FLAWL3SS,NOVA
Vik,OneTwo,Rapeseed,D2U,SAFC,goldadvance,MEMORY100,KaN1vE,Unevano,Pinnz,Wayne,Mr Hive
and all P2P groups 
Great Work Guys :D

CM8@hushmail.com